<?xml version="1.0" standalone="no"?>
<!DOCTYPE svg PUBLIC "-//W3C//DTD SVG 20010904//EN"
 "http://www.w3.org/TR/2001/REC-SVG-20010904/DTD/svg10.dtd">
<svg version="1.0" xmlns="http://www.w3.org/2000/svg"
 width="300.000000pt" height="300.000000pt" viewBox="0 0 300.000000 300.000000"
 preserveAspectRatio="xMidYMid meet">
<metadata>
Created by potrace 1.10, written by Peter Selinger 2001-2011
</metadata>
<g transform="translate(0.000000,300.000000) scale(0.100000,-0.100000)"
fill="#000000" stroke="none">
<path d="M1647 1989 c-27 -16 -50 -68 -42 -98 8 -30 43 -71 62 -71 18 0 17
-70 -1 -114 -7 -18 -26 -43 -42 -55 l-29 -23 -7 30 c-9 34 -52 80 -82 88 -12
3 -122 4 -245 2 l-223 -3 -34 -37 c-26 -29 -34 -46 -34 -76 0 -31 -6 -42 -30
-60 -42 -32 -37 -42 20 -42 l50 0 0 61 c0 54 3 64 29 90 l29 29 212 0 212 0
29 -29 c26 -26 29 -36 29 -90 0 -59 1 -61 26 -61 23 0 26 3 21 25 -3 20 1 29
22 40 35 18 77 64 90 98 6 16 11 51 11 78 0 34 4 49 13 49 17 0 53 39 61 67 9
28 -16 88 -42 102 -26 14 -81 14 -105 0z m87 -45 c19 -18 21 -55 4 -72 -7 -7
-24 -12 -38 -12 -14 0 -31 5 -38 12 -28 28 -2 88 38 88 10 0 26 -7 34 -16z"/>
<path d="M913 1965 c-39 -17 -67 -67 -58 -104 15 -62 80 -94 134 -67 36 19 51
44 51 86 0 44 -16 69 -55 86 -40 16 -32 17 -72 -1z m71 -51 c19 -18 20 -38 6
-65 -12 -22 -59 -26 -78 -7 -15 15 -15 61 0 76 17 17 54 15 72 -4z"/>
<path d="M1999 1952 c-122 -63 -155 -218 -71 -331 32 -43 113 -81 172 -81 48
0 116 26 139 53 17 21 31 13 31 -17 0 -27 118 -136 149 -136 24 0 51 25 51 49
0 25 -125 145 -143 138 -30 -12 -39 18 -22 70 28 80 1 169 -69 231 -66 58
-155 67 -237 24z m193 -48 c95 -61 104 -205 16 -279 -71 -60 -163 -53 -234 19
-54 54 -66 112 -36 177 48 109 158 145 254 83z m191 -356 c49 -50 58 -68 31
-68 -16 0 -124 98 -124 112 0 22 52 -3 93 -44z"/>
<path d="M1077 1632 c-10 -11 -17 -36 -17 -60 0 -38 2 -42 24 -42 23 0 24 3
19 35 l-6 35 179 -2 179 -3 -3 -32 c-3 -30 -1 -33 22 -33 24 0 26 3 26 44 0
72 -12 76 -226 76 -163 0 -183 -2 -197 -18z"/>
<path d="M549 1404 c-18 -43 -35 -81 -37 -86 -2 -4 6 -8 18 -8 13 0 24 8 27
20 4 16 14 20 45 20 31 0 41 -4 45 -20 3 -13 14 -20 29 -20 23 0 22 1 -16 83
-52 110 -65 112 -111 11z m69 1 c11 -23 10 -25 -14 -25 -20 0 -25 4 -20 16 3
9 6 20 6 25 0 18 17 8 28 -16z"/>
<path d="M725 1455 c-56 -55 -16 -145 63 -145 44 0 73 23 54 42 -8 8 -15 8
-26 -2 -20 -16 -62 -5 -76 19 -24 45 26 95 71 71 31 -17 52 5 25 26 -31 22
-83 18 -111 -11z"/>
<path d="M875 1395 l0 -85 67 0 c56 0 66 3 62 15 -4 10 -20 15 -50 15 -37 0
-44 3 -44 20 0 17 7 20 40 20 29 0 40 4 40 15 0 11 -11 15 -40 15 -34 0 -40 3
-40 21 0 20 4 21 45 17 39 -5 45 -3 45 13 0 17 -8 19 -62 19 l-63 0 0 -85z"/>
<path d="M1048 1468 c-40 -33 -21 -81 37 -92 21 -4 35 -13 35 -21 0 -18 -33
-20 -62 -4 -16 9 -23 8 -29 -2 -12 -20 18 -39 61 -39 49 0 73 19 68 55 -2 24
-10 31 -38 40 -19 5 -41 14 -49 19 -22 14 12 28 42 17 19 -7 28 -6 37 4 24 29
-69 49 -102 23z"/>
<path d="M1200 1460 c-11 -11 -20 -24 -20 -28 0 -18 30 -47 59 -57 17 -5 32
-14 33 -20 4 -15 -41 -18 -57 -5 -16 13 -35 5 -35 -15 0 -28 98 -36 124 -9 34
34 9 73 -56 88 -16 4 -28 10 -28 15 0 15 31 21 51 11 22 -12 39 -6 39 14 0 30
-82 34 -110 6z"/>
<path d="M1362 1464 c-24 -17 -29 -56 -9 -72 6 -5 27 -13 45 -17 18 -4 32 -13
32 -21 0 -17 -33 -18 -62 -3 -28 15 -46 -10 -21 -28 21 -16 95 -17 111 -1 30
30 -3 88 -50 88 -21 0 -33 19 -21 31 6 6 20 6 38 -1 35 -13 55 7 28 28 -23 17
-64 15 -91 -4z"/>
<path d="M1492 1395 c3 -73 5 -85 21 -85 15 0 17 11 17 85 0 78 -2 85 -20 85
-19 0 -20 -6 -18 -85z"/>
<path d="M1560 1395 l0 -85 58 0 c45 0 63 4 76 19 18 20 15 61 -4 61 -5 0 -4
12 2 26 11 23 10 29 -11 45 -16 13 -39 19 -72 19 l-49 0 0 -85z m98 33 c3 -14
-3 -18 -27 -18 -25 0 -31 4 -31 21 0 16 5 20 27 17 17 -2 29 -10 31 -20z m7
-68 c0 -10 -12 -16 -32 -18 -28 -3 -33 0 -33 18 0 18 5 21 33 18 20 -2 32 -8
32 -18z"/>
<path d="M1730 1395 c0 -78 2 -85 20 -85 18 0 20 7 20 85 0 78 -2 85 -20 85
-18 0 -20 -7 -20 -85z"/>
<path d="M1790 1395 l0 -85 60 0 c47 0 60 3 60 15 0 11 -11 15 -40 15 l-40 0
0 70 c0 63 -2 70 -20 70 -18 0 -20 -7 -20 -85z"/>
<path d="M1930 1395 c0 -74 2 -85 18 -85 15 0 17 9 14 85 -3 65 -7 85 -18 85
-11 0 -14 -18 -14 -85z"/>
<path d="M1980 1461 c0 -14 6 -17 25 -13 25 4 25 4 25 -67 0 -64 2 -71 20 -71
18 0 20 7 20 71 0 71 0 71 25 65 20 -5 25 -3 25 11 0 10 15 -4 35 -34 21 -31
35 -64 35 -83 0 -23 4 -30 20 -30 16 0 19 5 14 30 -5 23 1 40 30 80 42 58 42
60 17 60 -11 0 -29 -15 -42 -36 l-22 -37 -21 37 -21 36 -92 0 c-84 0 -93 -2
-93 -19z"/>
<path d="M661 1204 c-17 -36 -31 -70 -31 -75 0 -18 29 -9 35 11 5 15 15 20 40
20 25 0 35 -5 40 -20 6 -20 35 -29 35 -11 0 22 -63 141 -75 141 -7 0 -27 -30
-44 -66z m53 -22 c-25 -6 -32 2 -22 28 l9 25 14 -25 c12 -21 12 -25 -1 -28z"/>
<path d="M800 1196 l0 -75 48 6 c58 6 82 26 82 69 0 43 -38 74 -91 74 l-39 0
0 -74z m88 32 c27 -27 1 -78 -39 -78 -16 0 -19 7 -19 45 0 40 2 45 23 45 13 0
28 -5 35 -12z"/>
<path d="M950 1201 c0 -39 5 -73 10 -76 18 -11 91 6 111 26 47 47 2 119 -76
119 l-45 0 0 -69z m94 23 c9 -8 16 -20 16 -26 0 -20 -33 -48 -57 -48 -21 0
-23 4 -23 45 0 41 2 45 24 45 14 0 32 -7 40 -16z"/>
<path d="M1130 1250 c-30 -30 -27 -83 6 -109 30 -24 43 -26 77 -10 25 11 47
47 47 75 0 8 -11 26 -25 39 -30 31 -77 33 -105 5z m90 -31 c9 -16 8 -26 -5
-45 -17 -27 -27 -29 -56 -14 -21 12 -25 50 -7 68 19 19 56 14 68 -9z"/>
<path d="M1307 1259 c-46 -27 -41 -105 9 -128 33 -15 45 -14 73 5 18 13 20 18
10 25 -8 4 -19 3 -26 -3 -21 -17 -63 6 -63 36 0 32 24 50 55 42 33 -9 50 1 34
20 -13 16 -66 18 -92 3z"/>
<path d="M1454 1213 c-14 -32 -30 -66 -35 -75 -8 -14 -6 -18 10 -18 11 0 22 9
26 20 4 14 15 20 35 20 19 0 33 -7 40 -20 11 -21 45 -28 37 -7 -34 85 -62 137
-74 137 -8 0 -26 -26 -39 -57z m55 -25 c1 -5 -8 -8 -19 -8 -23 0 -24 4 -8 33
11 21 11 21 19 2 4 -11 8 -23 8 -27z"/>
<path d="M1560 1255 c0 -9 9 -15 24 -15 22 0 23 -3 22 -57 -1 -49 2 -58 18
-61 17 -4 19 1 13 57 -5 59 -4 61 19 61 15 0 24 6 24 15 0 12 -13 15 -60 15
-47 0 -60 -3 -60 -15z"/>
<path d="M1690 1196 l0 -73 55 -2 c43 -1 55 2 55 14 0 11 -11 15 -40 15 -34 0
-40 3 -40 20 0 18 4 20 35 14 28 -5 35 -3 35 10 0 12 -9 16 -35 16 -24 0 -35
5 -35 15 0 11 11 15 40 15 29 0 40 4 40 15 0 12 -13 15 -55 15 l-55 0 0 -74z"/>
<path d="M1890 1204 c-16 -37 -30 -71 -30 -75 0 -18 29 -8 35 11 4 14 15 20
35 20 19 0 33 -7 40 -20 11 -21 45 -28 37 -7 -34 84 -62 137 -73 137 -8 0 -27
-30 -44 -66z m57 -20 c-3 -3 -12 -4 -20 -2 -11 2 -12 9 -5 28 l10 25 11 -23
c5 -12 8 -25 4 -28z"/>
<path d="M2022 1198 c2 -55 6 -73 17 -73 23 0 19 139 -3 143 -15 3 -17 -6 -14
-70z"/>
</g>
</svg>
